<svg xmlns="http://www.w3.org/2000/svg" viewBox="0 0 24 24" aria-hidden="true">
  <path fill="#111111" d="M12 0.5C5.37 0.5 0 5.87 0 12.5c0 5.3 3.44 9.8 8.21 11.39.6.11.82-.26.82-.58 0-.29-.01-1.24-.02-2.25-3.34.73-4.04-1.42-4.04-1.42-.55-1.38-1.33-1.75-1.33-1.75-1.09-.75.08-.74.08-.74 1.2.09 1.84 1.24 1.84 1.24 1.07 1.83 2.8 1.3 3.48.99.11-.78.42-1.3.76-1.6-2.67-.3-5.47-1.34-5.47-5.95 0-1.31.47-2.38 1.24-3.22-.12-.3-.54-1.52.12-3.17 0 0 1.01-.32 3.3 1.23A11.4 11.4 0 0 1 12 6.6c1.02 0 2.05.14 3.01.41 2.29-1.55 3.29-1.23 3.29-1.23.66 1.65.24 2.87.12 3.17.77.84 1.24 1.91 1.24 3.22 0 4.62-2.8 5.64-5.48 5.94.43.37.81 1.1.81 2.22 0 1.61-.01 2.9-.01 3.29 0 .32.22.7.83.58A12.01 12.01 0 0 0 24 12.5C24 5.87 18.63.5 12 .5Z"/>
</svg>
